<?xml version="1.0" encoding="UTF-8"?>
<!DOCTYPE svg PUBLIC "-//W3C//DTD SVG 1.1//EN" "http://www.w3.org/Graphics/SVG/1.1/DTD/svg11.dtd">
<svg xmlns="http://www.w3.org/2000/svg" version="1.1" width="794px" height="482px" style="shape-rendering:geometricPrecision; text-rendering:geometricPrecision; image-rendering:optimizeQuality; fill-rule:evenodd; clip-rule:evenodd" xmlns:xlink="http://www.w3.org/1999/xlink">
<g><path style="opacity:0.724" fill="#9acf16" d="M 184.5,149.5 C 183.833,149.5 183.5,149.833 183.5,150.5C 180.546,151.271 177.546,151.938 174.5,152.5C 175.167,151.167 175.833,149.833 176.5,148.5C 177.167,148.5 177.5,148.167 177.5,147.5C 221.372,93.7083 277.372,74.875 345.5,91C 360.167,95.001 373.833,101.168 386.5,109.5C 386,109.833 385.5,110.167 385,110.5C 339.84,84.759 293.006,81.5923 244.5,101C 220.16,111.844 200.16,128.011 184.5,149.5 Z"/></g>
<g><path style="opacity:0.724" fill="#FFFFFF" d="M 220.5,127.5 C 224.972,129.515 225.639,132.515 222.5,136.5C 220.914,134.33 219.58,131.996 218.5,129.5C 219.243,128.818 219.909,128.151 220.5,127.5 Z"/></g>
<g><path style="opacity:0.863" fill="#FFFFFF" d="M 177.5,147.5 C 176.833,147.5 176.5,147.833 176.5,148.5C 171.309,149.762 166.642,152.096 162.5,155.5C 159.818,152.666 158.318,149.332 158,145.5C 161.68,141.824 166.014,139.157 171,137.5C 172.261,137.759 173.261,138.426 174,139.5C 175.076,142.237 176.243,144.904 177.5,147.5 Z"/></g>
<g><path style="opacity:0.898" fill="#FFFFFF" d="M 156.5,268.5 C 154.205,269.475 152.205,270.808 150.5,272.5C 147.374,274.664 144.04,275.331 140.5,274.5C 139.107,270.714 137.441,267.048 135.5,263.5C 144.684,261.471 152.184,256.805 158,249.5C 181.625,212.418 205.125,175.251 228.5,138C 229.449,137.383 230.282,137.549 231,138.5C 232.564,141.371 234.064,144.204 235.5,147C 234.42,150.662 232.92,154.162 231,157.5C 209.417,190.998 188.083,224.664 167,258.5C 163.631,262.037 160.131,265.371 156.5,268.5 Z M 219.5,161.5 C 221.257,166.682 219.59,170.682 214.5,173.5C 212.855,168.124 214.521,164.124 219.5,161.5 Z M 208.5,178.5 C 211.452,183.677 209.952,187.677 204,190.5C 202.56,189.07 202.226,187.403 203,185.5C 204.382,182.695 206.216,180.361 208.5,178.5 Z"/></g>
<g><path style="opacity:0.939" fill="#FFFFFF" d="M 88.5,270.5 C 89.791,270.737 90.791,270.404 91.5,269.5C 94.2406,269.293 96.5739,268.293 98.5,266.5C 99.4916,266.672 100.158,266.338 100.5,265.5C 102.553,265.598 104.22,264.931 105.5,263.5C 106.492,263.672 107.158,263.338 107.5,262.5C 108.492,262.672 109.158,262.338 109.5,261.5C 110.492,261.672 111.158,261.338 111.5,260.5C 112.492,260.672 113.158,260.338 113.5,259.5C 114.492,259.672 115.158,259.338 115.5,258.5C 116.492,258.672 117.158,258.338 117.5,257.5C 118.492,257.672 119.158,257.338 119.5,256.5C 121.38,256.771 122.713,256.104 123.5,254.5C 125.674,254.25 127.341,253.25 128.5,251.5C 130.027,251.573 131.027,250.906 131.5,249.5C 132.492,249.672 133.158,249.338 133.5,248.5C 135.749,247.92 137.415,246.587 138.5,244.5C 139.167,244.5 139.5,244.167 139.5,243.5C 142.167,242.833 143.833,241.167 144.5,238.5C 145.167,238.5 145.5,238.167 145.5,237.5C 146.167,237.5 146.5,237.167 146.5,236.5C 148.873,234.421 150.206,231.754 150.5,228.5C 151.845,225.949 152.511,223.116 152.5,220C 151.63,213.981 150.63,207.981 149.5,202C 150.256,198.875 150.589,195.709 150.5,192.5C 151.404,191.791 151.737,190.791 151.5,189.5C 152.931,188.22 153.598,186.553 153.5,184.5C 154.338,184.158 154.672,183.492 154.5,182.5C 155.338,182.158 155.672,181.492 155.5,180.5C 156.906,180.027 157.573,179.027 157.5,177.5C 159.262,176.738 160.262,175.404 160.5,173.5C 161.167,173.5 161.5,173.167 161.5,172.5C 165.167,169.5 168.5,166.167 171.5,162.5C 172.167,162.5 172.5,162.167 172.5,161.5C 174.404,161.262 175.738,160.262 176.5,158.5C 177.167,158.5 177.5,158.167 177.5,157.5C 179.027,157.573 180.027,156.906 180.5,155.5C 182.027,155.573 183.027,154.906 183.5,153.5C 185.027,153.573 186.027,152.906 186.5,151.5C 189.479,150.346 192.479,149.18 195.5,148C 203.405,146.656 211.238,145.156 219,143.5C 219.269,146.28 218.102,148.446 215.5,150C 210.793,151.12 206.126,152.453 201.5,154C 199.884,154.615 198.551,155.615 197.5,157C 201.873,156.651 206.206,156.818 210.5,157.5C 210.657,158.873 210.49,160.207 210,161.5C 191.75,189.664 173.75,217.998 156,246.5C 152.113,251.054 147.613,254.887 142.5,258C 138.27,259.29 133.936,259.79 129.5,259.5C 130.941,263.714 132.941,267.714 135.5,271.5C 119.603,272.174 103.77,272.84 88,273.5C 87.5304,272.423 87.6971,271.423 88.5,270.5 Z"/></g>
<g><path style="opacity:0.975" fill="#FFFFFF" d="M 184.5,149.5 C 186.993,149.131 187.66,149.797 186.5,151.5C 184.973,151.427 183.973,152.094 183.5,153.5C 181.973,153.427 180.973,154.094 180.5,155.5C 178.973,155.427 177.973,156.094 177.5,157.5C 176.833,157.5 176.5,157.833 176.5,158.5C 174.596,158.738 173.262,159.738 172.5,161.5C 171.833,161.5 171.5,161.833 171.5,162.5C 167.167,164.833 163.833,168.167 161.5,172.5C 160.833,172.5 160.5,172.833 160.5,173.5C 158.738,174.262 157.738,175.596 157.5,177.5C 156.094,177.973 155.427,178.973 155.5,180.5C 154.662,180.842 154.328,181.508 154.5,182.5C 153.662,182.842 153.328,183.508 153.5,184.5C 152.069,185.78 151.402,187.447 151.5,189.5C 150.596,190.209 150.263,191.209 150.5,192.5C 149.474,195.457 148.807,198.624 148.5,202C 150.824,210.756 151.49,219.589 150.5,228.5C 148.659,230.849 147.326,233.515 146.5,236.5C 145.833,236.5 145.5,236.833 145.5,237.5C 144.833,237.5 144.5,237.833 144.5,238.5C 142.5,239.833 140.833,241.5 139.5,243.5C 138.833,243.5 138.5,243.833 138.5,244.5C 136.251,245.08 134.585,246.413 133.5,248.5C 132.508,248.328 131.842,248.662 131.5,249.5C 129.973,249.427 128.973,250.094 128.5,251.5C 126.326,251.75 124.659,252.75 123.5,254.5C 121.847,254.66 120.514,255.326 119.5,256.5C 118.508,256.328 117.842,256.662 117.5,257.5C 116.508,257.328 115.842,257.662 115.5,258.5C 114.508,258.328 113.842,258.662 113.5,259.5C 112.508,259.328 111.842,259.662 111.5,260.5C 110.508,260.328 109.842,260.662 109.5,261.5C 108.508,261.328 107.842,261.662 107.5,262.5C 106.508,262.328 105.842,262.662 105.5,263.5C 103.447,263.402 101.78,264.069 100.5,265.5C 99.5084,265.328 98.8417,265.662 98.5,266.5C 95.7594,266.707 93.4261,267.707 91.5,269.5C 90.209,269.263 89.209,269.596 88.5,270.5C 84.5144,267.532 82.3477,263.532 82,258.5C 110.239,223.87 139.073,189.703 168.5,156C 170.388,154.606 172.388,153.44 174.5,152.5C 177.546,151.938 180.546,151.271 183.5,150.5C 184.167,150.5 184.5,150.167 184.5,149.5 Z"/></g>
<g><path style="opacity:0.946" fill="#99cf15" d="M 451.5,154.5 C 458.852,152.759 464.352,155.092 468,161.5C 468.333,179.167 468.667,196.833 469,214.5C 476.524,205.977 484.358,197.81 492.5,190C 503.08,186.857 508.58,190.69 509,201.5C 502.027,210.307 494.527,218.64 486.5,226.5C 494.667,237.5 502.833,248.5 511,259.5C 513.159,268.132 509.659,272.798 500.5,273.5C 497.972,273.237 495.639,272.404 493.5,271C 485.454,260.41 477.287,249.91 469,239.5C 468.667,248.167 468.333,256.833 468,265.5C 464.171,272.779 458.337,274.946 450.5,272C 448.667,270.833 447.167,269.333 446,267.5C 444.354,232.56 444.02,197.56 445,162.5C 446.305,159.039 448.471,156.372 451.5,154.5 Z"/></g>
<g><path style="opacity:0.901" fill="#FFFFFF" d="M 134.5,172.5 C 135.496,172.414 136.329,172.748 137,173.5C 138.529,176.278 139.862,178.945 141,181.5C 120.312,206.021 99.8115,230.687 79.5,255.5C 76.641,256.599 73.9743,256.099 71.5,254C 70.4238,252.274 70.2571,250.441 71,248.5C 92.3779,223.294 113.545,197.96 134.5,172.5 Z"/></g>
<g><path style="opacity:0.945" fill="#99cf15" d="M 552.5,187.5 C 564.888,186.962 575.721,190.629 585,198.5C 588.89,203.499 591.224,209.166 592,215.5C 592.667,225.833 592.667,236.167 592,246.5C 590.41,257.52 584.577,265.354 574.5,270C 559.998,275.291 545.998,274.291 532.5,267C 526.494,262.15 522.661,255.983 521,248.5C 520.333,236.5 520.333,224.5 521,212.5C 525.753,196.879 536.253,188.545 552.5,187.5 Z M 550.5,208.5 C 554.514,208.334 558.514,208.501 562.5,209C 565,210.167 566.833,212 568,214.5C 568.667,225.167 568.667,235.833 568,246.5C 565.415,251.13 561.415,253.463 556,253.5C 551.117,253.549 547.45,251.549 545,247.5C 544.333,236.167 544.333,224.833 545,213.5C 546.73,211.598 548.563,209.931 550.5,208.5 Z"/></g>
<g><path style="opacity:0.953" fill="#99cf15" d="M 638.5,188.5 C 648.365,187.076 657.365,189.076 665.5,194.5C 675.843,188.922 686.843,187.089 698.5,189C 710.198,191.696 717.698,198.863 721,210.5C 721.667,229.167 721.667,247.833 721,266.5C 718.538,270.985 714.704,273.319 709.5,273.5C 703.805,273.41 699.972,270.743 698,265.5C 697.667,248.167 697.333,230.833 697,213.5C 694.103,208.845 689.937,207.345 684.5,209C 681.751,210.123 679.251,211.623 677,213.5C 676.667,231.5 676.333,249.5 676,267.5C 670.849,273.66 664.683,274.826 657.5,271C 655.951,269.786 654.785,268.286 654,266.5C 653.947,248.115 653.281,229.781 652,211.5C 650.314,209.081 647.981,208.081 645,208.5C 640.689,208.995 636.522,209.995 632.5,211.5C 632.667,229.503 632.5,247.503 632,265.5C 630.065,270.73 626.232,273.397 620.5,273.5C 615.867,273.346 612.367,271.346 610,267.5C 609.667,249.5 609.333,231.5 609,213.5C 608.667,211.5 608.333,209.5 608,207.5C 602.833,200.304 604.333,194.804 612.5,191C 617.362,189.787 621.529,190.953 625,194.5C 629.531,192.312 634.031,190.312 638.5,188.5 Z"/></g>
<g><path style="opacity:0.921" fill="#FFFFFF" d="M 386.5,196.5 C 395.915,196.083 405.248,196.583 414.5,198C 418.432,202.737 418.432,207.404 414.5,212C 387.215,213.299 359.882,213.966 332.5,214C 328.511,217.955 328.511,221.955 332.5,226C 354.833,226.333 377.167,226.667 399.5,227C 413.147,231.656 418.98,241.156 417,255.5C 413.691,265.402 406.858,270.902 396.5,272C 369.816,272.833 343.15,272.5 316.5,271C 312.5,266.333 312.5,261.667 316.5,257C 343.5,256.667 370.5,256.333 397.5,256C 398.931,255.535 400.097,254.701 401,253.5C 401.667,250.833 401.667,248.167 401,245.5C 400.097,244.299 398.931,243.465 397.5,243C 375.167,242.667 352.833,242.333 330.5,242C 314.62,235.034 310.12,223.534 317,207.5C 320.315,203.182 324.481,200.015 329.5,198C 348.671,197.832 367.671,197.332 386.5,196.5 Z"/></g>
<g><path style="opacity:0.925" fill="#FFFFFF" d="M 218.5,197.5 C 243.232,197.029 267.898,197.529 292.5,199C 304.891,205.948 308.725,216.115 304,229.5C 300.694,235.911 295.528,240.078 288.5,242C 268.5,242.667 248.5,242.667 228.5,242C 221.85,237.044 221.85,232.044 228.5,227C 247.833,226.667 267.167,226.333 286.5,226C 291.332,222.465 291.665,218.465 287.5,214C 265.167,213.333 242.833,213.333 220.5,214C 219.299,214.903 218.465,216.069 218,217.5C 217.667,234.5 217.333,251.5 217,268.5C 212.656,272.128 207.99,272.462 203,269.5C 202.667,268.5 202.333,267.5 202,266.5C 201.333,249.833 201.333,233.167 202,216.5C 204.178,207.163 209.678,200.83 218.5,197.5 Z"/></g>
<g><path style="opacity:0.886" fill="#FFFFFF" d="M 293.5,256.5 C 300.6,254.557 304.933,257.057 306.5,264C 304.976,271.108 300.643,273.441 293.5,271C 289.537,266.168 289.537,261.334 293.5,256.5 Z"/></g>
<g><path style="opacity:0.871" fill="#FFFFFF" d="M 425.5,256.5 C 437.192,254.762 440.859,259.262 436.5,270C 432.152,272.161 427.985,271.995 424,269.5C 421.743,264.805 422.243,260.472 425.5,256.5 Z"/></g>
<g><path style="opacity:0.716" fill="#FFFFFF" d="M 73.5,258.5 C 80.3101,260.816 83.6435,265.483 83.5,272.5C 78.2064,269.251 74.8731,264.584 73.5,258.5 Z"/></g>
<g><path style="opacity:0.761" fill="#9acf16" d="M 156.5,268.5 C 169.816,329.279 206.149,369.112 265.5,388C 297.971,396.625 329.804,394.791 361,382.5C 361.617,383.449 361.451,384.282 360.5,385C 291.64,408.16 232.473,393.327 183,340.5C 166.549,320.595 155.716,297.928 150.5,272.5C 152.205,270.808 154.205,269.475 156.5,268.5 Z"/></g>
<g><path style="opacity:0.616" fill="#FFFFFF" d="M 682.5,282.5 C 685.718,282.651 686.051,283.484 683.5,285C 689.467,288.392 690.967,293.226 688,299.5C 684,303.5 680,303.5 676,299.5C 674,295.833 674,292.167 676,288.5C 678.664,287.002 680.83,285.002 682.5,282.5 Z M 680.5,288.5 C 684.146,288.452 686.146,290.285 686.5,294C 685.807,298.758 683.307,300.258 679,298.5C 676.739,294.654 677.239,291.32 680.5,288.5 Z"/></g>
<g><path style="opacity:0.613" fill="#FFFFFF" d="M 207.5,285.5 C 209.017,285.511 210.184,286.177 211,287.5C 212.81,292.429 214.31,297.429 215.5,302.5C 214.5,302.5 213.5,302.5 212.5,302.5C 212.442,298.212 210.442,296.879 206.5,298.5C 205.93,301.784 204.263,302.784 201.5,301.5C 203.705,296.216 205.705,290.882 207.5,285.5 Z M 208.5,290.5 C 209.249,291.531 209.915,292.698 210.5,294C 209.365,294.749 208.365,294.583 207.5,293.5C 208.127,292.583 208.461,291.583 208.5,290.5 Z"/></g>
<g><path style="opacity:0.568" fill="#FFFFFF" d="M 228.5,285.5 C 229.833,285.5 231.167,285.5 232.5,285.5C 232.34,287.199 232.506,288.866 233,290.5C 234.5,289 236,287.5 237.5,286C 238.635,285.251 239.635,285.417 240.5,286.5C 238.684,288.817 236.684,290.984 234.5,293C 236.694,295.695 238.694,298.528 240.5,301.5C 239.635,302.583 238.635,302.749 237.5,302C 236,299.833 234.5,297.667 233,295.5C 232.5,296 232,296.5 231.5,297C 232.406,298.699 232.739,300.533 232.5,302.5C 231.167,302.5 229.833,302.5 228.5,302.5C 228.5,296.833 228.5,291.167 228.5,285.5 Z"/></g>
<g><path style="opacity:0.607" fill="#FFFFFF" d="M 257.5,285.5 C 259.792,285.244 261.959,285.577 264,286.5C 264.749,287.635 264.583,288.635 263.5,289.5C 256.53,287.64 254.03,290.306 256,297.5C 258.574,299.002 261.407,300.002 264.5,300.5C 259.084,303.732 254.917,302.398 252,296.5C 251.176,291.482 253.009,287.815 257.5,285.5 Z"/></g>
<g><path style="opacity:0.593" fill="#FFFFFF" d="M 277.5,285.5 C 280.833,285.5 284.167,285.5 287.5,285.5C 287.5,286.5 287.5,287.5 287.5,288.5C 285.167,288.5 282.833,288.5 280.5,288.5C 280.5,289.833 280.5,291.167 280.5,292.5C 282.5,292.5 284.5,292.5 286.5,292.5C 286.5,293.5 286.5,294.5 286.5,295.5C 284.5,295.5 282.5,295.5 280.5,295.5C 280.5,296.833 280.5,298.167 280.5,299.5C 282.833,299.5 285.167,299.5 287.5,299.5C 287.5,300.5 287.5,301.5 287.5,302.5C 284.167,302.5 280.833,302.5 277.5,302.5C 277.5,296.833 277.5,291.167 277.5,285.5 Z"/></g>
<g><path style="opacity:0.613" fill="#FFFFFF" d="M 303.5,285.5 C 305.199,285.34 306.866,285.506 308.5,286C 309.731,287.183 309.731,288.349 308.5,289.5C 306.929,288.691 305.262,288.357 303.5,288.5C 303.561,291.05 304.894,292.55 307.5,293C 311.5,296 311.5,299 307.5,302C 305.231,302.758 303.064,302.591 301,301.5C 300.251,300.365 300.417,299.365 301.5,298.5C 303.901,300.062 305.901,299.729 307.5,297.5C 305.462,295.724 303.296,294.057 301,292.5C 300.333,291.167 300.333,289.833 301,288.5C 302.045,287.627 302.878,286.627 303.5,285.5 Z"/></g>
<g><path style="opacity:0.667" fill="#FFFFFF" d="M 328.5,285.5 C 336.672,286.192 339.506,290.526 337,298.5C 330.048,304.457 325.215,302.957 322.5,294C 323.187,290.16 325.187,287.327 328.5,285.5 Z M 328.5,288.5 C 334.156,288.867 335.989,291.867 334,297.5C 331.667,300.167 329.333,300.167 327,297.5C 326.068,294.177 326.568,291.177 328.5,288.5 Z"/></g>
<g><path style="opacity:0.62" fill="#FFFFFF" d="M 352.5,285.5 C 361.058,284.528 363.391,287.694 359.5,295C 361.156,296.797 362.156,298.964 362.5,301.5C 361.5,302.833 360.5,302.833 359.5,301.5C 358.846,299.885 358.346,298.218 358,296.5C 356.989,295.663 355.822,295.33 354.5,295.5C 354.5,297.833 354.5,300.167 354.5,302.5C 353.5,302.5 352.5,302.5 351.5,302.5C 351.214,296.741 351.548,291.075 352.5,285.5 Z M 354.5,288.5 C 357.5,288.167 358.833,289.5 358.5,292.5C 357.167,292.5 355.833,292.5 354.5,292.5C 354.5,291.167 354.5,289.833 354.5,288.5 Z"/></g>
<g><path style="opacity:0.616" fill="#FFFFFF" d="M 375.5,285.5 C 376.5,285.5 377.5,285.5 378.5,285.5C 378.5,291.167 378.5,296.833 378.5,302.5C 377.5,302.5 376.5,302.5 375.5,302.5C 375.5,296.833 375.5,291.167 375.5,285.5 Z"/></g>
<g><path style="opacity:0.617" fill="#FFFFFF" d="M 397.5,285.5 C 399.888,286.219 401.388,287.885 402,290.5C 403.477,294.43 404.644,298.43 405.5,302.5C 402.53,302.254 401.197,300.588 401.5,297.5C 397.518,296.578 395.184,298.078 394.5,302C 393.365,302.749 392.365,302.583 391.5,301.5C 393.705,296.216 395.705,290.882 397.5,285.5 Z M 398.5,290.5 C 399.782,291.708 399.782,293.042 398.5,294.5C 397.708,293.3 397.708,291.967 398.5,290.5 Z"/></g>
<g><path style="opacity:0.615" fill="#FFFFFF" d="M 436.5,285.5 C 446.384,284.869 450.217,289.202 448,298.5C 444.556,301.883 440.39,303.216 435.5,302.5C 435.214,296.741 435.548,291.075 436.5,285.5 Z M 438.5,288.5 C 445.265,288.464 447.265,291.631 444.5,298C 442.655,299.128 440.655,299.628 438.5,299.5C 438.5,295.833 438.5,292.167 438.5,288.5 Z"/></g>
<g><path style="opacity:0.66" fill="#FFFFFF" d="M 467.5,285.5 C 475.975,286.776 478.475,291.443 475,299.5C 467.821,304.498 463.321,302.665 461.5,294C 461.931,289.944 463.931,287.111 467.5,285.5 Z M 467.5,288.5 C 473.705,289.944 475.039,293.444 471.5,299C 466.333,299.833 464.167,297.667 465,292.5C 465.48,290.867 466.313,289.534 467.5,288.5 Z"/></g>
<g><path style="opacity:0.547" fill="#FFFFFF" d="M 504.5,285.5 C 508.5,285.5 512.5,285.5 516.5,285.5C 516.5,286.5 516.5,287.5 516.5,288.5C 515.167,288.5 513.833,288.5 512.5,288.5C 512.5,293.167 512.5,297.833 512.5,302.5C 511.167,302.5 509.833,302.5 508.5,302.5C 508.5,297.833 508.5,293.167 508.5,288.5C 507.167,288.5 505.833,288.5 504.5,288.5C 504.5,287.5 504.5,286.5 504.5,285.5 Z"/></g>
<g><path style="opacity:0.611" fill="#FFFFFF" d="M 529.5,285.5 C 532.5,285.5 535.5,285.5 538.5,285.5C 538.5,286.5 538.5,287.5 538.5,288.5C 536.5,288.5 534.5,288.5 532.5,288.5C 532.5,289.833 532.5,291.167 532.5,292.5C 534.5,292.5 536.5,292.5 538.5,292.5C 538.5,293.5 538.5,294.5 538.5,295.5C 536.5,295.5 534.5,295.5 532.5,295.5C 532.5,296.833 532.5,298.167 532.5,299.5C 534.924,299.192 537.257,299.526 539.5,300.5C 539.333,300.833 539.167,301.167 539,301.5C 535.943,302.451 532.777,302.784 529.5,302.5C 529.5,296.833 529.5,291.167 529.5,285.5 Z"/></g>
<g><path style="opacity:0.573" fill="#FFFFFF" d="M 552.5,285.5 C 553.5,285.5 554.5,285.5 555.5,285.5C 555.5,290.167 555.5,294.833 555.5,299.5C 557.5,299.5 559.5,299.5 561.5,299.5C 561.5,300.5 561.5,301.5 561.5,302.5C 558.5,302.5 555.5,302.5 552.5,302.5C 552.5,296.833 552.5,291.167 552.5,285.5 Z"/></g>
<g><path style="opacity:0.623" fill="#FFFFFF" d="M 575.5,285.5 C 578.5,285.5 581.5,285.5 584.5,285.5C 584.5,286.5 584.5,287.5 584.5,288.5C 582.5,288.5 580.5,288.5 578.5,288.5C 578.5,289.833 578.5,291.167 578.5,292.5C 580.5,292.5 582.5,292.5 584.5,292.5C 584.5,293.5 584.5,294.5 584.5,295.5C 582.5,295.5 580.5,295.5 578.5,295.5C 578.5,296.833 578.5,298.167 578.5,299.5C 580.5,299.5 582.5,299.5 584.5,299.5C 584.5,300.5 584.5,301.5 584.5,302.5C 581.5,302.5 578.5,302.5 575.5,302.5C 575.5,296.833 575.5,291.167 575.5,285.5 Z"/></g>
<g><path style="opacity:0.616" fill="#FFFFFF" d="M 598.5,285.5 C 601.5,285.5 604.5,285.5 607.5,285.5C 607.5,286.5 607.5,287.5 607.5,288.5C 605.5,288.5 603.5,288.5 601.5,288.5C 601.5,289.833 601.5,291.167 601.5,292.5C 603.167,292.5 604.833,292.5 606.5,292.5C 606.5,293.5 606.5,294.5 606.5,295.5C 604.833,295.5 603.167,295.5 601.5,295.5C 601.5,297.833 601.5,300.167 601.5,302.5C 600.5,302.5 599.5,302.5 598.5,302.5C 598.5,296.833 598.5,291.167 598.5,285.5 Z"/></g>
<g><path style="opacity:0.657" fill="#FFFFFF" d="M 625.5,285.5 C 633.775,286.275 636.608,290.608 634,298.5C 629.155,304.079 624.822,303.746 621,297.5C 619.474,292.239 620.974,288.239 625.5,285.5 Z M 625.5,288.5 C 631.156,288.867 632.989,291.867 631,297.5C 628.16,300.371 625.826,300.037 624,296.5C 623.109,293.502 623.609,290.836 625.5,288.5 Z"/></g>
<g><path style="opacity:0.596" fill="#FFFFFF" d="M 648.5,285.5 C 649.822,285.33 650.989,285.663 652,286.5C 654,289.833 656,293.167 658,296.5C 658.499,292.848 658.665,289.182 658.5,285.5C 659.5,285.5 660.5,285.5 661.5,285.5C 661.5,291.167 661.5,296.833 661.5,302.5C 659.61,302.703 658.11,302.037 657,300.5C 655.333,297.5 653.667,294.5 652,291.5C 651.501,295.152 651.335,298.818 651.5,302.5C 650.5,302.5 649.5,302.5 648.5,302.5C 648.5,296.833 648.5,291.167 648.5,285.5 Z"/></g>
<g><path style="opacity:0.631" fill="#FFFFFF" d="M 701.5,285.5 C 702.675,285.281 703.675,285.614 704.5,286.5C 705.645,289.748 706.479,293.081 707,296.5C 710.158,281.905 712.825,281.905 715,296.5C 716,293.167 717,289.833 718,286.5C 719.011,285.663 720.178,285.33 721.5,285.5C 719.91,290.441 718.41,295.441 717,300.5C 716.29,301.973 715.124,302.64 713.5,302.5C 711.836,287.846 710.17,287.846 708.5,302.5C 706.876,302.64 705.71,301.973 705,300.5C 703.672,295.522 702.505,290.522 701.5,285.5 Z"/></g>
</svg>
